<svg xmlns="http://www.w3.org/2000/svg" viewBox="0 0 1393.71 329"><defs><style>.cls-1{fill:#1d1d1b;}.cls-1,.cls-2,.cls-3,.cls-4,.cls-5{stroke:#fff;stroke-miterlimit:10;}.cls-2{fill:#4d7abd;}.cls-3{fill:#e72270;}.cls-4{fill:none;}.cls-5,.cls-6{fill:#fff;}.cls-6{font-size:9px;font-family:Tahoma;}.cls-7{letter-spacing:0em;}.cls-8{letter-spacing:-0.02em;}.cls-9{letter-spacing:-0.01em;}.cls-10{letter-spacing:-0.05em;}.cls-11{letter-spacing:-0.02em;}.cls-12{letter-spacing:0em;}</style></defs><g id="Capa_5" data-name="Capa 5"><rect class="cls-1" x="552.21" y="0.5" width="841" height="328"/></g><g id="Capa_2" data-name="Capa 2"><rect class="cls-2" x="590.21" y="128.5" width="77" height="42"/><rect class="cls-3" x="695.71" y="101" width="77" height="42" rx="4.35"/><rect class="cls-3" x="696.21" y="156.5" width="77" height="42" rx="4.35"/><rect class="cls-2" x="813.21" y="128.5" width="77" height="42"/><rect class="cls-3" x="916.21" y="128.5" width="77" height="42" rx="4.35"/><rect class="cls-2" x="917.21" y="185.5" width="77" height="42"/><rect class="cls-2" x="472.22" y="116.23" width="66.43" height="66.62" transform="translate(805.49 -313.6) rotate(45)"/><rect class="cls-3" x="1128.21" y="206.5" width="77" height="42" rx="4.35"/><rect class="cls-3" x="1126.21" y="128.5" width="77" height="42" rx="4.35"/><rect class="cls-3" x="1128.21" y="50.5" width="77" height="42" rx="4.35"/><rect class="cls-2" x="1256.21" y="128.5" width="77" height="42"/></g><g id="Capa_3" data-name="Capa 3"><path class="cls-4" d="M143.5,177.5c-13.74-6.23-21.73-19.84-20-33,1.8-13.65,13.29-21,15-22" transform="translate(551.71)"/><polygon class="cls-5" points="690.21 119.5 690.21 127.18 694.14 123.34 690.21 119.5"/><path class="cls-5" d="M36.5,90.5" transform="translate(551.71)"/><path class="cls-4" d="M221,122.5a21.49,21.49,0,0,1,9.93,4c6.15,4.78,5.1,10.74,9.92,16,2.59,2.82,7.49,6.11,17.65,7" transform="translate(551.71)"/><path class="cls-4" d="M258.49,149.52a21.27,21.27,0,0,0-9.93,4c-6.15,4.78-5.09,10.74-9.92,16-2.59,2.82-7.48,6.11-17.64,7" transform="translate(551.71)"/><polygon class="cls-5" points="808.21 146.18 808.21 153.86 812.14 150.02 808.21 146.18"/><line class="cls-4" x1="890.71" y1="149.5" x2="909.71" y2="149.5"/><polygon class="cls-5" points="910.21 145.86 910.21 153.54 914.14 149.7 910.21 145.86"/><line class="cls-4" x1="993.71" y1="149.5" x2="1005.21" y2="149.5"/><polygon class="cls-5" points="1005.21 145.86 1005.21 153.54 1009.14 149.7 1005.21 145.86"/><line class="cls-4" x1="955.79" y1="170.5" x2="955.79" y2="181.25"/><polygon class="cls-5" points="959.43 181.25 951.75 181.25 955.59 184.42 959.43 181.25"/><line class="cls-4" x1="1105.21" y1="149.5" x2="1120.83" y2="149.3"/><polygon class="cls-5" points="1120.83 145.66 1120.83 153.34 1124.77 149.5 1120.83 145.66"/><path class="cls-4" d="M505.5,100.5a26.15,26.15,0,0,1,5.11-15c4-5.24,9.61-7.79,17.39-10,8.65-2.46,23.84-5.57,45-4" transform="translate(551.71)"/><path class="cls-4" d="M505.76,197.53a26.17,26.17,0,0,0,5.09,15c4,5.24,9.57,7.79,17.32,10,8.62,2.45,23.75,5.56,44.83,4" transform="translate(551.71)"/><polygon class="cls-5" points="1123.21 67.67 1123.21 75.35 1127.14 71.51 1123.21 67.67"/><polygon class="cls-5" points="1123.21 222.66 1123.21 230.35 1127.14 226.51 1123.21 222.66"/><path class="cls-4" d="M653.5,72.5c5.84-.73,11.49-.12,16,3,19.27,13.32.46,60.33,19,72,3.19,2,7.65,3.07,14,2" transform="translate(551.71)"/><path class="cls-4" d="M653.89,227.72c5.84.73,11.48.12,16-3,19.26-13.37.46-60.56,19-72.28,3.19-2,7.65-3.08,14-2" transform="translate(551.71)"/><line class="cls-4" x1="1203.21" y1="149.5" x2="1254.21" y2="149.5"/><polygon class="cls-5" points="1250.21 146 1250.21 153.69 1254.14 149.85 1250.21 146"/></g><g id="Capa_4" data-name="Capa 4"><text class="cls-6" transform="translate(602.25 147.02)">Búsqueda de <tspan x="-4.42" y="10.8">cont</tspan><tspan class="cls-7" x="12.65" y="10.8">r</tspan><tspan x="15.85" y="10.8">ol y poder</tspan></text><text x="551.71"/><text class="cls-6" transform="translate(720.36 180.92)"><tspan class="cls-8">P</tspan><tspan x="4.75" y="0">olítica</tspan></text><text class="cls-6" transform="translate(720.24 125.45)">Diseño</text><text class="cls-6" transform="translate(824.38 147.05)">Un<tspan class="cls-9" x="10.92" y="0">f</tspan><tspan x="13.7" y="0">old-De</tspan><tspan class="cls-9" x="39.73" y="0">f</tspan><tspan x="42.5" y="0">old </tspan><tspan x="13.76" y="10.8">Design</tspan></text><text class="cls-6" transform="translate(925.1 153.45)"><tspan class="cls-10">F</tspan><tspan x="4.28" y="0">ase de diseño</tspan></text><text class="cls-6" transform="translate(937.98 209.45)">Ite<tspan class="cls-11" x="11.1" y="0">r</tspan><tspan x="14.19" y="0">ación</tspan></text><text class="cls-6" transform="translate(1028.52 150.92)">Materia<tspan class="cls-12" x="29.43" y="0">l</tspan><tspan x="31.5" y="0">ización</tspan></text><text class="cls-6" transform="translate(1149.64 74.45)">Sistemas</text><text class="cls-6" transform="translate(1148.94 152.33)">Objetos</text><text class="cls-6" transform="translate(1140.83 229.69)">Urbanización</text><text class="cls-6" transform="translate(1271.83 147.29)">Ca<tspan class="cls-7" x="10.13" y="0">r</tspan><tspan x="13.33" y="0">gado de </tspan><tspan x="-7.03" y="10.8">intenciona</tspan><tspan class="cls-12" x="33.65" y="10.8">l</tspan><tspan x="35.71" y="10.8">idad</tspan></text></g></svg>